[img]http://imgr.us/images/djufm22kp1dp5fpq9e3h.png[/img]
-------------------------------------------------
[img]http://imgr.us/images/q9oy4odn5053an1o867h.png[/img]
-------------------------------------------------
File Name    : Charlie St. Cloud[2010]DvDrip-LW
Type         : Movie
Format       : AVI
File Size    : 696 MB
Duration     : 01:39:22
Language     : English
Source       : DvD
Subtitles    : None
Genre        : Fantasy | Romance | Drama
IMDB Link    : http://www.imdb.com/title/tt1438254/
-------------------------------------------------
[img]http://imgr.us/images/a14k8fabur54ad5gubq4.png[/img]
-------------------------------------------------
Format                           : MPEG-4 Visual
Format profile                   : Simple@L3
Format settings, BVOP            : Yes
Format settings, QPel            : No
Format settings, GMC             : No warppoints
Format settings, Matrix          : Default (MPEG)
Muxing mode                      : Packed bitstream
Codec ID                         : XVID
Codec ID/Hint                    : XviD
Duration                         : 1h 39mn
Bit rate                         : 843 Kbps
Width                            : 640 pixels
Height                           : 272 pixels
Display aspect ratio             : 2.35:1
Frame rate                       : 23.976 fps
Color space                      : YUV
Chroma subsampling               : 4:2:0
Bit depth                        : 8 bits
Scan type                        : Progressive
Bits/(Pixel*Frame)               : 0.202
Stream size                      : 599 MiB (86%)
Writing library                  : XviD 1.0.3
-------------------------------------------------
[img]http://imgr.us/images/2s0oz5wrpxo5em2q6m.png[/img]
-------------------------------------------------
Format                           : MPEG Audio
Format version                   : Version 1
Format profile                   : Layer 3
Mode                             : Joint stereo
Mode extension                   : MS Stereo
Codec ID                         : 55
Codec ID/Hint                    : MP3
Duration                         : 1h 39mn
Bit rate mode                    : Variable
Bit rate                         : 128 Kbps
Channel(s)                       : 2 channels
Sampling rate                    : 48.0 KHz
Stream size                      : 88.7 MiB (13%)
Alignment                        : Aligned on interleaves
Interleave, duration             : 24 ms (0.58 video frame)
Interleave, preload duration     : 326 ms
Writing library                  : LAME3.90
-------------------------------------------------
[img]http://imgr.us/images/bnnacqs56aalgsuyqma.png[/img]
-------------------------------------------------
Ben Sherwood's intriguing novel is the basis of 
this ghost story about Charlie (Zac Efron), who is 
devoted to his brother, Sam, even after Sam's death. 
As the caretaker of the cemetery where Sam is buried, 
Charlie has lots of time to commune with the dead. 
Sam visits frequently to hang out with Charlie, but 
when Charlie meets a mysterious young woman (Amanda 
Crew), he must decide whether to move forward or 
remain trapped in the past.

Cast: Zac Efron, Charlie Tahan

Director: Burr Steers
-------------------------------------------------
[img]http://imgr.us/images/7clcz7gn5qp6df9a7b1t.png[/img]
[img]http://imgr.us/images/sfcv060nslg0ecbuepb.png[/img]
[img]http://imgr.us/images/om4ifed802055gibrq63.png[/img]
[img]http://imgr.us/images/k1dklhuuffp97bfmwuih.png[/img]
[img]http://imgr.us/images/b3m828okemvu5y1zoj6.png[/img]
[img]http://imgr.us/images/p3raleckmte5kueqx5tx.jpg[/img]